<svg height='100px' width='100px'  fill="#000000" xmlns="http://www.w3.org/2000/svg" xmlns:xlink="http://www.w3.org/1999/xlink" version="1.1" x="0px" y="0px" viewBox="0 0 100 100" style="enable-background:new 0 0 100 100;" xml:space="preserve"><path d="M44.8076172,30.8339844h10.3847656c0.3574219,0,0.6875-0.1904297,0.8662109-0.5s0.1787109-0.6904297,0-1  l-5.1923828-8.9931641c-0.3574219-0.6191406-1.375-0.6191406-1.7324219,0l-5.1923828,8.9931641  c-0.1787109,0.3095703-0.1787109,0.6904297,0,1S44.4501953,30.8339844,44.8076172,30.8339844z M50,22.8398438l3.4609375,5.9941406  h-6.921875L50,22.8398438z"></path><path d="M31.1035156,39.6708984c0.0927734,0.3457031,0.3623047,0.6152344,0.7070312,0.7070312  c0.0859375,0.0234375,0.1728516,0.0341797,0.2587891,0.0341797c0.2617188,0,0.5175781-0.1025391,0.7070312-0.2929688  l7.3427734-7.3427734c0.2529297-0.2519531,0.3515625-0.6210938,0.2587891-0.9658203  c-0.0917969-0.3447266-0.3613281-0.6142578-0.7070312-0.7070312l-10.03125-2.6884766  c-0.3476562-0.0957031-0.7138672,0.0058594-0.9658203,0.2587891c-0.2529297,0.2529297-0.3515625,0.6210938-0.2587891,0.9658203  L31.1035156,39.6708984z M37.4804688,32.5869141l-4.8935547,4.8935547l-1.7919922-6.6855469L37.4804688,32.5869141z"></path><path d="M29.8339844,56.1923828c0.1728516,0,0.3457031-0.0449219,0.5-0.1337891c0.3095703-0.1787109,0.5-0.5087891,0.5-0.8662109  V44.8076172c0-0.3574219-0.1904297-0.6875-0.5-0.8662109c-0.3085938-0.1777344-0.6914062-0.1777344-1,0l-8.9931641,5.1923828  c-0.3095703,0.1787109-0.5,0.5087891-0.5,0.8662109s0.1904297,0.6875,0.5,0.8662109l8.9931641,5.1923828  C29.4882812,56.1474609,29.6611328,56.1923828,29.8339844,56.1923828z M28.8339844,53.4609375L22.8398438,50l5.9941406-3.4609375  V53.4609375z"></path><path d="M32.7763672,59.8808594c-0.2519531-0.2529297-0.6181641-0.3535156-0.9658203-0.2587891  c-0.3447266,0.0917969-0.6142578,0.3613281-0.7070312,0.7070312l-2.6884766,10.03125  c-0.0927734,0.3447266,0.0058594,0.7128906,0.2587891,0.9658203c0.1894531,0.1904297,0.4453125,0.2929688,0.7070312,0.2929688  c0.0859375,0,0.1728516-0.0107422,0.2587891-0.0341797l10.03125-2.6884766  c0.3457031-0.0927734,0.6152344-0.3623047,0.7070312-0.7070312c0.0927734-0.3447266-0.0058594-0.7138672-0.2587891-0.9658203  L32.7763672,59.8808594z M30.7949219,69.2050781l1.7919922-6.6855469l4.8935547,4.8935547L30.7949219,69.2050781z"></path><path d="M55.1923828,69.1660156H44.8076172c-0.3574219,0-0.6875,0.1904297-0.8662109,0.5s-0.1787109,0.6904297,0,1  l5.1923828,8.9931641c0.1787109,0.3095703,0.5087891,0.5,0.8662109,0.5s0.6875-0.1904297,0.8662109-0.5l5.1923828-8.9931641  c0.1787109-0.3095703,0.1787109-0.6904297,0-1S55.5498047,69.1660156,55.1923828,69.1660156z M50,77.1601562l-3.4609375-5.9941406  h6.921875L50,77.1601562z"></path><path d="M68.8964844,60.3291016c-0.0927734-0.3457031-0.3623047-0.6152344-0.7070312-0.7070312  c-0.3466797-0.0947266-0.7148438,0.0058594-0.9658203,0.2587891l-7.3427734,7.3427734  c-0.2529297,0.2519531-0.3515625,0.6210938-0.2587891,0.9658203c0.0917969,0.3447266,0.3613281,0.6142578,0.7070312,0.7070312  l10.03125,2.6884766c0.0859375,0.0234375,0.1728516,0.0341797,0.2587891,0.0341797  c0.2617188,0,0.5175781-0.1025391,0.7070312-0.2929688c0.2529297-0.2529297,0.3515625-0.6210938,0.2587891-0.9658203  L68.8964844,60.3291016z M62.5195312,67.4130859l4.8935547-4.8935547l1.7919922,6.6855469L62.5195312,67.4130859z"></path><path d="M69.6660156,43.9414062c-0.3095703,0.1787109-0.5,0.5087891-0.5,0.8662109v10.3847656  c0,0.3574219,0.1904297,0.6875,0.5,0.8662109c0.1542969,0.0888672,0.3271484,0.1337891,0.5,0.1337891  s0.3457031-0.0449219,0.5-0.1337891l8.9931641-5.1923828c0.3095703-0.1787109,0.5-0.5087891,0.5-0.8662109  s-0.1904297-0.6875-0.5-0.8662109l-8.9931641-5.1923828C70.3574219,43.7636719,69.9746094,43.7636719,69.6660156,43.9414062z   M71.1660156,46.5390625L77.1601562,50l-5.9941406,3.4609375V46.5390625z"></path><path d="M67.2236328,40.1191406c0.1894531,0.1904297,0.4453125,0.2929688,0.7070312,0.2929688  c0.0859375,0,0.1728516-0.0107422,0.2587891-0.0341797c0.3447266-0.0917969,0.6142578-0.3613281,0.7070312-0.7070312  l2.6884766-10.03125c0.0927734-0.3447266-0.0058594-0.7128906-0.2587891-0.9658203  c-0.2509766-0.2529297-0.6171875-0.3544922-0.9658203-0.2587891l-10.03125,2.6884766  c-0.3457031,0.0927734-0.6152344,0.3623047-0.7070312,0.7070312c-0.0927734,0.3447266,0.0058594,0.7138672,0.2587891,0.9658203  L67.2236328,40.1191406z M69.2050781,30.7949219l-1.7919922,6.6855469l-4.8935547-4.8935547L69.2050781,30.7949219z"></path><path d="M50,10c-22.0556641,0-40,17.9443359-40,40s17.9443359,40,40,40s40-17.9443359,40-40S72.0556641,10,50,10z M50,88  c-20.953125,0-38-17.046875-38-38s17.046875-38,38-38s38,17.046875,38,38S70.953125,88,50,88z"></path><path d="M32.9228516,50c0,9.4160156,7.6611328,17.0771484,17.0771484,17.0771484S67.0771484,59.4160156,67.0771484,50  S59.4160156,32.9228516,50,32.9228516S32.9228516,40.5839844,32.9228516,50z M65.0771484,50  c0,8.3134766-6.7636719,15.0771484-15.0771484,15.0771484S34.9228516,58.3134766,34.9228516,50S41.6865234,34.9228516,50,34.9228516  S65.0771484,41.6865234,65.0771484,50z"></path><path d="M50,15.5175781c-19.015625,0-34.4853516,15.4697266-34.4853516,34.4853516  c0,19.0146484,15.4697266,34.484375,34.4853516,34.484375s34.4853516-15.4697266,34.4853516-34.484375  C84.4853516,30.9873047,69.015625,15.5175781,50,15.5175781z M50,82.4873047  c-17.9121094,0-32.4853516-14.5722656-32.4853516-32.484375S32.0878906,17.5175781,50,17.5175781  s32.4853516,14.5732422,32.4853516,32.4853516S67.9121094,82.4873047,50,82.4873047z"></path><path d="M38.7158203,50.0029297c0,6.2216797,5.0625,11.2841797,11.2841797,11.2841797s11.2841797-5.0625,11.2841797-11.2841797  S56.2216797,38.71875,50,38.71875S38.7158203,43.78125,38.7158203,50.0029297z M59.2841797,50.0029297  c0,5.1191406-4.1650391,9.2841797-9.2841797,9.2841797s-9.2841797-4.1650391-9.2841797-9.2841797S44.8808594,40.71875,50,40.71875  S59.2841797,44.8837891,59.2841797,50.0029297z"></path><path d="M44.9267578,50c0,2.7978516,2.2753906,5.0732422,5.0732422,5.0732422S55.0732422,52.7978516,55.0732422,50  S52.7978516,44.9267578,50,44.9267578S44.9267578,47.2021484,44.9267578,50z M53.0732422,50  c0,1.6943359-1.3789062,3.0732422-3.0732422,3.0732422S46.9267578,51.6943359,46.9267578,50S48.3056641,46.9267578,50,46.9267578  S53.0732422,48.3056641,53.0732422,50z"></path></svg>
