<svg height='100px' width='100px'  fill="#000000" xmlns="http://www.w3.org/2000/svg" xmlns:xlink="http://www.w3.org/1999/xlink" version="1.1" x="0px" y="0px" viewBox="0 0 100 100" style="enable-background:new 0 0 100 100;" xml:space="preserve"><path d="M50.15625,57.6083984c0.0441284,0,0.086731-0.0058594,0.1307373-0.0064087  c0.0441284,0.0003052,0.086792,0.0064087,0.1309814,0.0064087c10.4160156,0,18.890625-8.2177734,18.890625-18.3193359  c0-9.8535156-17.4257812-28.203125-18.1679688-28.9794922c-0.3769531-0.3964844-1.0683594-0.3964844-1.4453125,0  c-0.7421875,0.7763672-18.1679688,19.1259766-18.1679688,28.9794922c0,9.630249,7.7071533,17.5307007,17.4509277,18.2485962  C49.3654785,57.5808105,49.7573853,57.6083984,50.15625,57.6083984z M41.875,47.6230469  c0-3.4306641,5.4150391-10.7626953,8.28125-14.2685547c2.8662109,3.5048828,8.28125,10.8359375,8.28125,14.2685547  c0,4.3607178-3.6446533,7.9105225-8.1502686,7.9789429c-0.3729858-0.0028076-0.7401123-0.0283203-1.1070557-0.0541992  C45.072876,55.079895,41.875,51.7073975,41.875,47.6230469z M33.5273438,39.2890625  c0-7.9902344,13.5751953-23.2216797,16.890625-26.8222656c3.3173828,3.6015625,16.890625,18.8291016,16.890625,26.8222656  c0,6.2559204-3.6669922,11.6941528-9.0292969,14.4320679c1.3473511-1.6890259,2.1582031-3.8010864,2.1582031-6.0980835  c0-5.1826172-8.5458984-15.3378906-9.5205078-16.4785156c-0.3808594-0.4453125-1.140625-0.4453125-1.5214844,0  C48.4208984,32.2851562,39.875,42.4404297,39.875,47.6230469c0,2.0638428,0.6481934,3.9834595,1.7570801,5.5770264  C36.7813721,50.3292236,33.5273438,45.1757812,33.5273438,39.2890625z"></path><path d="M17.5107422,82.0888672l1.4677734,4.3701172c0.4433594,1.3193359,1.3720703,2.3857422,2.6162109,3.0019531  c0.7246094,0.3583984,1.5048828,0.5400391,2.2900391,0.5400391c0.5585938,0,1.1201172-0.0917969,1.6650391-0.2763672  l24.6049194-8.3931274l24.3179321,8.394104c0.5439453,0.1845703,1.1035156,0.2753906,1.6611328,0.2753906  c0.7851562,0,1.5664062-0.1806641,2.2910156-0.5400391c1.2441406-0.6162109,2.1728516-1.6826172,2.6162109-3.0019531  l1.4677734-4.3701172c0.9121094-2.7158203-0.5478516-5.6708984-3.2480469-6.5869141l-5.7437744-1.982605l5.7388916-1.8347778  c2.7050781-0.9179688,4.1650391-3.8730469,3.2529297-6.5888672l-1.4677734-4.3701172  c-0.4433594-1.3193359-1.3720703-2.3857422-2.6162109-3.0019531c-1.2412109-0.6142578-2.6445312-0.7080078-3.9501953-0.265625  l-24.0524292,8.0897827l-24.8743286-8.5858765c-1.3076172-0.4433594-2.7119141-0.3496094-3.9511719,0.2636719  c-1.2451172,0.6162109-2.1748047,1.6826172-2.6181641,3.0019531l-1.4677734,4.3710938  c-0.9101562,2.7158203,0.5478516,5.6689453,3.2509766,6.5869141l6.251709,2.157959L20.7646484,75.5  C18.0595703,76.4169922,16.5996094,79.3730469,17.5107422,82.0888672z M75.1132812,59.3535156  c0.8046875-0.2724609,1.6630859-0.2138672,2.4228516,0.1621094c0.7646484,0.3789062,1.3359375,1.0351562,1.6083984,1.8466797  l0.8161621,2.4300537l-5.0437012,1.5123291c-0.5292969,0.1591797-0.8291016,0.7158203-0.6708984,1.2451172  c0.1298828,0.4335938,0.5273438,0.7128906,0.9580078,0.7128906c0.0947266,0,0.1914062-0.0136719,0.2871094-0.0419922  l5.1066895-1.53125l0.0144043,0.0429688c0.5625,1.6728516-0.3349609,3.4931641-1.9824219,4.0527344l-8.2700195,2.6444702  L53.519104,66.6167603L75.1132812,59.3535156z M21.40625,69.2919922c-1.6640625-0.5634766-2.5605469-2.3828125-1.9990234-4.0566406  l0.8514404-2.5356445l5.1846924,1.7504883c0.1064453,0.0361328,0.2138672,0.0527344,0.3203125,0.0527344  c0.4169922,0,0.8066406-0.2626953,0.9472656-0.6796875c0.1767578-0.5234375-0.1044922-1.0908203-0.6269531-1.2675781  l-5.1828003-1.7498779c0.2802734-0.7832642,0.8369141-1.4188843,1.5822144-1.788208  c0.4453125-0.2197266,0.9238281-0.3310547,1.4042969-0.3310547c0.3408203,0,0.6816406,0.0556641,1.0126953,0.1679688  l53.7128906,18.5400391c1.6640625,0.5644531,2.5615234,2.3847656,1.9990234,4.0576172l-0.0605469,0.180481l-4.9980469-1.6882935  c-0.5224609-0.1767578-1.0908203,0.1035156-1.2675781,0.6269531s0.1035156,1.0908203,0.6269531,1.2675781l5.0018311,1.6895752  l-0.7703857,2.2938232c-0.2724609,0.8115234-0.84375,1.4677734-1.6083984,1.8466797  c-0.7587891,0.3769531-1.6201172,0.4355469-2.4169922,0.1640625L21.4121094,69.2939453  C21.4101562,69.2929688,21.4082031,69.2929688,21.40625,69.2919922z M30.0784912,74.4014893l16.9972534,5.8671875  L24.90625,87.8310547c-0.8037109,0.2734375-1.6621094,0.2138672-2.4228516-0.1621094  C21.71875,87.2900391,21.1474609,86.6337891,20.875,85.8222656l-0.8843994-2.6331787l5.0924072-1.5269775  c0.5292969-0.1591797,0.8291016-0.7158203,0.6708984-1.2451172c-0.1591797-0.5292969-0.7138672-0.8291016-1.2451172-0.6708984  l-5.1390991,1.5409546c-0.4516602-1.6260986,0.4280396-3.3475342,2.0424194-3.8944702L30.0784912,74.4014893z"></path><path d="M69.9794922,77.8652344l-12.4375-4.2011719c-0.5234375-0.1777344-1.0908203,0.1035156-1.2675781,0.6269531  s0.1044922,1.0908203,0.6269531,1.2675781l12.4375,4.2011719c0.1064453,0.0361328,0.2138672,0.0527344,0.3203125,0.0527344  c0.4169922,0,0.8066406-0.2626953,0.9472656-0.6796875C70.7832031,78.609375,70.5019531,78.0419922,69.9794922,77.8652344z"></path><path d="M37.0029297,69.6484375l-5.8359375-1.9716797C30.6455078,67.5,30.0761719,67.7802734,29.8994141,68.3037109  s0.1035156,1.0908203,0.6269531,1.2675781l5.8359375,1.9716797c0.1064453,0.0361328,0.2138672,0.0527344,0.3203125,0.0527344  c0.4169922,0,0.8066406-0.2626953,0.9472656-0.6796875C37.8066406,70.3925781,37.5263672,69.8251953,37.0029297,69.6484375z"></path></svg>