<svg height='100px' width='100px'  fill="#000000" xmlns="http://www.w3.org/2000/svg" xmlns:xlink="http://www.w3.org/1999/xlink" version="1.1" x="0px" y="0px" viewBox="0 0 100 100" style="enable-background:new 0 0 100 100;" xml:space="preserve"><path d="M11,87.9238281c-0.5522461,0-1,0.4477539-1,1s0.4477539,1,1,1h77.9492188c0.5522461,0,1-0.4477539,1-1s-0.4477539-1-1-1  h-1.0862427L51.4432373,19.5025635l4.5445557-4.5445557c0.390625-0.390625,0.390625-1.0234375,0-1.4140625  s-1.0234375-0.390625-1.4140625,0L51,17.1176758V11c0-0.5522461-0.4477539-1-1-1s-1,0.4477539-1,1v6.1176758l-3.5737305-3.5737305  c-0.390625-0.390625-1.0234375-0.390625-1.4140625,0s-0.390625,1.0234375,0,1.4140625l4.5445557,4.5445557L12.1370239,87.9238281H11  z M51,87.9238281V71.262207h25.7285156L85.59729,87.9238281H51z M31.281311,56.2143555H49V69.262207H24.3360596  L31.281311,56.2143555z M51,22.9265137l16.6541138,31.2878418H51V22.9265137z M49,54.2143555H32.3458862L49,22.9265137V54.2143555z   M51,56.2143555h17.718689l6.9452515,13.0478516H51V56.2143555z M23.2714844,71.262207H49v16.6616211H14.40271L23.2714844,71.262207  z"></path></svg>