<svg height='100px' width='100px'  fill="#ffffff" xmlns="http://www.w3.org/2000/svg" xmlns:xlink="http://www.w3.org/1999/xlink" version="1.1" x="0px" y="0px" viewBox="0 0 100 100" style="enable-background:new 0 0 100 100;" xml:space="preserve"><path d="M12.2460938,45.3466797c0.1787109,0.3095703,0.5087891,0.5,0.8662109,0.5h13.6572266  c0.3574219,0,0.6875-0.1904297,0.8662109-0.5s0.1787109-0.6904297,0-1l-6.8291016-11.8271484  c-0.3574219-0.6191406-1.375-0.6191406-1.7324219,0l-6.828125,11.8271484  C12.0673828,44.65625,12.0673828,45.0371094,12.2460938,45.3466797z M19.9404297,35.0195312l5.0966797,8.8271484H14.8447266  L19.9404297,35.0195312z"></path><path d="M33.1523438,45.8466797h13.65625c0.3574219,0,0.6875-0.1904297,0.8662109-0.5s0.1787109-0.6904297,0-1l-6.828125-11.8271484  c-0.3574219-0.6191406-1.375-0.6191406-1.7324219,0l-6.828125,11.8271484c-0.1787109,0.3095703-0.1787109,0.6904297,0,1  S32.7949219,45.8466797,33.1523438,45.8466797z M39.9804688,35.0195312l5.0957031,8.8271484H34.8847656L39.9804688,35.0195312z"></path><path d="M53.1914062,45.8466797h13.65625c0.3574219,0,0.6875-0.1904297,0.8662109-0.5s0.1787109-0.6904297,0-1l-6.828125-11.8271484  c-0.3574219-0.6191406-1.375-0.6191406-1.7324219,0l-6.828125,11.8271484c-0.1787109,0.3095703-0.1787109,0.6904297,0,1  S52.8339844,45.8466797,53.1914062,45.8466797z M60.0195312,35.0195312l5.0957031,8.8271484H54.9238281L60.0195312,35.0195312z"></path><path d="M73.2304688,45.8466797h13.6572266c0.3574219,0,0.6875-0.1904297,0.8662109-0.5s0.1787109-0.6904297,0-1  l-6.828125-11.8271484c-0.1787109-0.3095703-0.5087891-0.5-0.8662109-0.5s-0.6875,0.1904297-0.8662109,0.5l-6.8291016,11.8271484  c-0.1787109,0.3095703-0.1787109,0.6904297,0,1S72.8730469,45.8466797,73.2304688,45.8466797z M80.0595703,35.0195312  l5.0957031,8.8271484H74.9628906L80.0595703,35.0195312z"></path><path d="M87.7539062,15.6533203c-0.1787109-0.3095703-0.5087891-0.5-0.8662109-0.5H73.2304688  c-0.3574219,0-0.6875,0.1904297-0.8662109,0.5s-0.1787109,0.6904297,0,1l6.8291016,11.8271484  c0.1787109,0.3095703,0.5087891,0.5,0.8662109,0.5s0.6875-0.1904297,0.8662109-0.5l6.828125-11.8271484  C87.9326172,16.34375,87.9326172,15.9628906,87.7539062,15.6533203z M80.0595703,25.9804688l-5.0966797-8.8271484h10.1923828  L80.0595703,25.9804688z"></path><path d="M60.0195312,28.9804688c0.3574219,0,0.6875-0.1904297,0.8662109-0.5l6.828125-11.8271484  c0.1787109-0.3095703,0.1787109-0.6904297,0-1s-0.5087891-0.5-0.8662109-0.5h-13.65625c-0.3574219,0-0.6875,0.1904297-0.8662109,0.5  s-0.1787109,0.6904297,0,1l6.828125,11.8271484C59.3320312,28.7900391,59.6621094,28.9804688,60.0195312,28.9804688z   M65.1152344,17.1533203l-5.0957031,8.8271484l-5.0957031-8.8271484H65.1152344z"></path><path d="M39.9804688,28.9804688c0.3574219,0,0.6875-0.1904297,0.8662109-0.5l6.828125-11.8271484  c0.1787109-0.3095703,0.1787109-0.6904297,0-1s-0.5087891-0.5-0.8662109-0.5h-13.65625c-0.3574219,0-0.6875,0.1904297-0.8662109,0.5  s-0.1787109,0.6904297,0,1l6.828125,11.8271484C39.2929688,28.7900391,39.6230469,28.9804688,39.9804688,28.9804688z   M45.0761719,17.1533203l-5.0957031,8.8271484l-5.0957031-8.8271484H45.0761719z"></path><path d="M19.0742188,28.4804688c0.1787109,0.3095703,0.5087891,0.5,0.8662109,0.5s0.6875-0.1904297,0.8662109-0.5  l6.8291016-11.8271484c0.1787109-0.3095703,0.1787109-0.6904297,0-1s-0.5087891-0.5-0.8662109-0.5H13.1123047  c-0.3574219,0-0.6875,0.1904297-0.8662109,0.5s-0.1787109,0.6904297,0,1L19.0742188,28.4804688z M25.0371094,17.1533203  l-5.0966797,8.8271484l-5.0957031-8.8271484H25.0371094z"></path><path d="M12.2460938,84.3466797c0.1787109,0.3095703,0.5087891,0.5,0.8662109,0.5h13.6572266  c0.3574219,0,0.6875-0.1904297,0.8662109-0.5s0.1787109-0.6904297,0-1l-6.8291016-11.8271484  c-0.3574219-0.6191406-1.375-0.6191406-1.7324219,0l-6.828125,11.8271484  C12.0673828,83.65625,12.0673828,84.0371094,12.2460938,84.3466797z M19.9404297,74.0195312l5.0966797,8.8271484H14.8447266  L19.9404297,74.0195312z"></path><path d="M39.1142578,71.5195312l-6.828125,11.8271484c-0.1787109,0.3095703-0.1787109,0.6904297,0,1s0.5087891,0.5,0.8662109,0.5  h13.65625c0.3574219,0,0.6875-0.1904297,0.8662109-0.5s0.1787109-0.6904297,0-1l-6.828125-11.8271484  C40.4892578,70.9003906,39.4716797,70.9003906,39.1142578,71.5195312z M34.8847656,82.8466797l5.0957031-8.8271484  l5.0957031,8.8271484H34.8847656z"></path><path d="M59.1533203,71.5195312l-6.828125,11.8271484c-0.1787109,0.3095703-0.1787109,0.6904297,0,1s0.5087891,0.5,0.8662109,0.5  h13.65625c0.3574219,0,0.6875-0.1904297,0.8662109-0.5s0.1787109-0.6904297,0-1l-6.828125-11.8271484  C60.5283203,70.9003906,59.5107422,70.9003906,59.1533203,71.5195312z M54.9238281,82.8466797l5.0957031-8.8271484  l5.0957031,8.8271484H54.9238281z"></path><path d="M80.9257812,71.5195312c-0.1787109-0.3095703-0.5087891-0.5-0.8662109-0.5s-0.6875,0.1904297-0.8662109,0.5  l-6.8291016,11.8271484c-0.1787109,0.3095703-0.1787109,0.6904297,0,1s0.5087891,0.5,0.8662109,0.5h13.6572266  c0.3574219,0,0.6875-0.1904297,0.8662109-0.5s0.1787109-0.6904297,0-1L80.9257812,71.5195312z M74.9628906,82.8466797  l5.0966797-8.8271484l5.0957031,8.8271484H74.9628906z"></path><path d="M87.7539062,54.6533203c-0.1787109-0.3095703-0.5087891-0.5-0.8662109-0.5H73.2304688  c-0.3574219,0-0.6875,0.1904297-0.8662109,0.5s-0.1787109,0.6904297,0,1l6.8291016,11.8271484  c0.1787109,0.3095703,0.5087891,0.5,0.8662109,0.5s0.6875-0.1904297,0.8662109-0.5l6.828125-11.8271484  C87.9326172,55.34375,87.9326172,54.9628906,87.7539062,54.6533203z M80.0595703,64.9804688l-5.0966797-8.8271484h10.1923828  L80.0595703,64.9804688z"></path><path d="M66.8476562,54.1533203h-13.65625c-0.3574219,0-0.6875,0.1904297-0.8662109,0.5s-0.1787109,0.6904297,0,1  l6.828125,11.8271484c0.1787109,0.3095703,0.5087891,0.5,0.8662109,0.5s0.6875-0.1904297,0.8662109-0.5l6.828125-11.8271484  c0.1787109-0.3095703,0.1787109-0.6904297,0-1S67.2050781,54.1533203,66.8476562,54.1533203z M60.0195312,64.9804688  l-5.0957031-8.8271484h10.1914062L60.0195312,64.9804688z"></path><path d="M46.8085938,54.1533203h-13.65625c-0.3574219,0-0.6875,0.1904297-0.8662109,0.5s-0.1787109,0.6904297,0,1  l6.828125,11.8271484c0.1787109,0.3095703,0.5087891,0.5,0.8662109,0.5s0.6875-0.1904297,0.8662109-0.5l6.828125-11.8271484  c0.1787109-0.3095703,0.1787109-0.6904297,0-1S47.1660156,54.1533203,46.8085938,54.1533203z M39.9804688,64.9804688  l-5.0957031-8.8271484h10.1914062L39.9804688,64.9804688z"></path><path d="M26.7695312,54.1533203H13.1123047c-0.3574219,0-0.6875,0.1904297-0.8662109,0.5s-0.1787109,0.6904297,0,1  l6.828125,11.8271484c0.1787109,0.3095703,0.5087891,0.5,0.8662109,0.5s0.6875-0.1904297,0.8662109-0.5l6.8291016-11.8271484  c0.1787109-0.3095703,0.1787109-0.6904297,0-1S27.1269531,54.1533203,26.7695312,54.1533203z M19.9404297,64.9804688  l-5.0957031-8.8271484h10.1923828L19.9404297,64.9804688z"></path><path d="M11,12h78c0.5527344,0,1-0.4477539,1-1s-0.4472656-1-1-1H11c-0.5527344,0-1,0.4477539-1,1S10.4472656,12,11,12z"></path><path d="M89,49H11c-0.5527344,0-1,0.4477539-1,1s0.4472656,1,1,1h78c0.5527344,0,1-0.4477539,1-1S89.5527344,49,89,49z"></path><path d="M89,88H11c-0.5527344,0-1,0.4477539-1,1s0.4472656,1,1,1h78c0.5527344,0,1-0.4477539,1-1S89.5527344,88,89,88z"></path><path d="M50.0058594,39.2680664h0.0009766c0.3476562-0.0004883,0.6699219-0.1811523,0.8515625-0.4775391l4.7626953-7.7714844  c0.1972656-0.3208008,0.1962891-0.7255859-0.0009766-1.0463867l-4.7744141-7.7646484  c-0.1816406-0.2958984-0.5039062-0.4760742-0.8515625-0.4760742h-0.0009766  c-0.3476562,0.0004883-0.6699219,0.1811523-0.8515625,0.4775391l-4.7626953,7.7714844  c-0.1972656,0.3208008-0.1962891,0.7255859,0.0009766,1.0463867l4.7744141,7.7646484  C49.3359375,39.0878906,49.6582031,39.2680664,50.0058594,39.2680664z M49.9951172,24.6435547l3.5996094,5.8540039  l-3.5898438,5.8588867l-3.5996094-5.8540039L49.9951172,24.6435547z"></path><path d="M30.0107422,39.2680664c0,0,0,0,0.0009766,0c0.3476562-0.0004883,0.6699219-0.1811523,0.8515625-0.4775391  l4.7626953-7.7714844c0.1972656-0.3208008,0.1962891-0.7255859-0.0009766-1.0463867l-4.7744141-7.7646484  c-0.1816406-0.2958984-0.5039062-0.4760742-0.8515625-0.4760742h-0.0009766  c-0.3476562,0.0004883-0.6699219,0.1811523-0.8515625,0.4775391l-4.7617188,7.7714844  c-0.1972656,0.3212891-0.1962891,0.7255859,0.0009766,1.0463867l4.7734375,7.7646484  C29.3408203,39.0878906,29.6630859,39.2680664,30.0107422,39.2680664z M30.0009766,24.6435547l3.5986328,5.8540039  l-3.5898438,5.8588867l-3.5996094-5.8540039L30.0009766,24.6435547z"></path><path d="M70.1015625,39.2680664h0.0009766c0.3476562-0.0004883,0.6699219-0.1811523,0.8515625-0.4775391l4.7617188-7.7714844  c0.1972656-0.3212891,0.1962891-0.7255859-0.0009766-1.0463867l-4.7734375-7.7646484  c-0.1816406-0.2958984-0.5039062-0.4760742-0.8515625-0.4760742h-0.0009766  c-0.3476562,0.0004883-0.6699219,0.1811523-0.8515625,0.4775391l-4.7626953,7.7714844  c-0.1972656,0.3208008-0.1962891,0.7255859,0.0009766,1.0463867L69.25,38.7919922  C69.4316406,39.0878906,69.7539062,39.2680664,70.1015625,39.2680664z M70.0908203,24.6435547l3.5996094,5.8540039  l-3.5908203,5.8588867l-3.5986328-5.8540039L70.0908203,24.6435547z"></path><path d="M49.9941406,60.7319336h-0.0009766c-0.3476562,0.0004883-0.6699219,0.1811523-0.8515625,0.4775391l-4.7626953,7.7714844  c-0.1972656,0.3208008-0.1962891,0.7255859,0.0009766,1.0463867l4.7744141,7.7646484  c0.1816406,0.2958984,0.5039062,0.4760742,0.8515625,0.4760742h0.0009766  c0.3476562-0.0004883,0.6699219-0.1811523,0.8515625-0.4775391l4.7626953-7.7714844  c0.1972656-0.3208008,0.1962891-0.7255859-0.0009766-1.0463867l-4.7744141-7.7646484  C50.6640625,60.9121094,50.3417969,60.7319336,49.9941406,60.7319336z M50.0048828,75.3564453l-3.5996094-5.8540039  l3.5898438-5.8588867l3.5996094,5.8540039L50.0048828,75.3564453z"></path><path d="M29.9990234,60.7319336h-0.0009766c-0.3476562,0.0004883-0.6699219,0.1811523-0.8515625,0.4775391l-4.7617188,7.7714844  c-0.1972656,0.3212891-0.1962891,0.7255859,0.0009766,1.0463867l4.7734375,7.7646484  c0.1816406,0.2958984,0.5039062,0.4760742,0.8515625,0.4760742c0,0,0,0,0.0009766,0  c0.3476562-0.0004883,0.6699219-0.1811523,0.8515625-0.4775391l4.7626953-7.7714844  c0.1972656-0.3208008,0.1962891-0.7255859-0.0009766-1.0463867l-4.7744141-7.7646484  C30.6689453,60.9121094,30.3466797,60.7319336,29.9990234,60.7319336z M30.0097656,75.3564453l-3.5996094-5.8540039  l3.5908203-5.8588867l3.5986328,5.8540039L30.0097656,75.3564453z"></path><path d="M70.0898438,60.7319336h-0.0009766c-0.3476562,0.0004883-0.6699219,0.1811523-0.8515625,0.4775391l-4.7626953,7.7714844  c-0.1972656,0.3208008-0.1962891,0.7255859,0.0009766,1.0463867L69.25,77.7919922  c0.1816406,0.2958984,0.5039062,0.4760742,0.8515625,0.4760742h0.0009766  c0.3476562-0.0004883,0.6699219-0.1811523,0.8515625-0.4775391l4.7617188-7.7714844  c0.1972656-0.3212891,0.1962891-0.7255859-0.0009766-1.0463867l-4.7734375-7.7646484  C70.7597656,60.9121094,70.4375,60.7319336,70.0898438,60.7319336z M70.0996094,75.3564453l-3.5986328-5.8540039  l3.5898438-5.8588867l3.5996094,5.8540039L70.0996094,75.3564453z"></path></svg>
