<svg height='100px' width='100px'  fill="#ffffff" xmlns="http://www.w3.org/2000/svg" xmlns:xlink="http://www.w3.org/1999/xlink" version="1.1" x="0px" y="0px" viewBox="0 0 100 100" style="enable-background:new 0 0 100 100;" xml:space="preserve"><path d="M19.375,59.7244873l-9.1240234,9.9439697C9.8779297,70.0756836,9.9052734,70.7080078,10.3125,71.081543  c0.1914062,0.1762695,0.4335938,0.2631836,0.6757812,0.2631836c0.2705078,0,0.5400391-0.1088867,0.7373047-0.3237305  L19.375,62.6834106v6.7335815l-9.1171875,9.7270508c-0.3779297,0.4033203-0.3574219,1.0361328,0.0458984,1.4135742  c0.1923828,0.1811523,0.4384766,0.2705078,0.6835938,0.2705078c0.2666016,0,0.5332031-0.105957,0.7294922-0.315918  L19.375,72.3417358v6.7376709l-9.1005859,9.2179565c-0.3876953,0.3930664-0.3837891,1.0263672,0.0097656,1.4140625  C10.4785156,89.9038086,10.7324219,90,10.9863281,90c0.2578125,0,0.515625-0.0991211,0.7119141-0.2973633L20.375,80.9135742  l8.6748047,8.7871094c0.3896484,0.3935547,1.0224609,0.3964844,1.4140625,0.0087891  c0.3935547-0.3876953,0.3974609-1.0209961,0.0097656-1.4140625L21.375,79.0794067v-6.7377319l7.5966797,8.1065674  c0.1962891,0.2104492,0.4628906,0.3164062,0.7294922,0.3164062c0.2451172,0,0.4912109-0.0893555,0.6835938-0.2705078  c0.4033203-0.3774414,0.4238281-1.0102539,0.0458984-1.4130859L21.375,69.4175415v-6.7383423l7.6513672,8.340332  c0.3730469,0.4067383,1.0068359,0.4331055,1.4130859,0.0605469c0.4072266-0.3735352,0.4345703-1.0058594,0.0615234-1.4130859  L21.375,59.7202148V25.4786987l9.5488281-0.0006714c0.3818359,0,0.7304688-0.2177734,0.8984375-0.5605469  c0.1679688-0.3432617,0.125-0.7519531-0.109375-1.0537109L21.2275391,10.3857422  C21.0390625,10.1430664,20.7490234,10.0009766,20.4414062,10c-0.0009766,0-0.0019531,0-0.0029297,0  c-0.3066406,0-0.5966797,0.140625-0.7861328,0.3818359L9.0546875,23.8613281  c-0.2363281,0.3012695-0.2802734,0.7109375-0.1132812,1.0551758s0.5166016,0.5629883,0.8994141,0.5629883L19.375,25.4788208  V59.7244873z M20.4345703,12.6230469l8.4443359,10.8549805l-16.9794922,0.0014648L20.4345703,12.6230469z"></path><path d="M60.5419922,25.4780273c0.3818359,0,0.7304688-0.2177734,0.8984375-0.5605469  c0.1679688-0.3432617,0.125-0.7519531-0.109375-1.0537109L50.8447266,10.3857422  C50.65625,10.1430664,50.3662109,10.0009766,50.0585938,10c-0.0009766,0-0.0019531,0-0.0029297,0  c-0.3066406,0-0.5966797,0.140625-0.7861328,0.3818359L38.671875,23.8613281  c-0.2363281,0.3012695-0.2802734,0.7109375-0.1132812,1.0551758s0.5166016,0.5629883,0.8994141,0.5629883l9.5351562-0.0006714  v34.2456665l-9.1240234,9.9439697c-0.3730469,0.4072266-0.3457031,1.0395508,0.0615234,1.4130859  c0.1914062,0.1762695,0.4335938,0.2631836,0.6757812,0.2631836c0.2705078,0,0.5400391-0.1088867,0.7373047-0.3237305  l7.6494141-8.3375854v6.7335815l-9.1171875,9.7270508c-0.3779297,0.4033203-0.3574219,1.0361328,0.0458984,1.4135742  c0.1923828,0.1811523,0.4384766,0.2705078,0.6835938,0.2705078c0.2666016,0,0.5332031-0.105957,0.7294922-0.315918  l7.6582031-8.1704712v6.7376709l-9.1005859,9.2179565c-0.3876953,0.3930664-0.3837891,1.0263672,0.0097656,1.4140625  C40.0966797,89.9038086,40.3505859,90,40.6044922,90c0.2578125,0,0.515625-0.0991211,0.7119141-0.2973633l8.6767578-8.7890625  l8.6748047,8.7871094c0.3896484,0.3935547,1.0224609,0.3964844,1.4140625,0.0087891  c0.3935547-0.3876953,0.3974609-1.0209961,0.0097656-1.4140625l-9.0986328-9.2160034v-6.7377319l7.5966797,8.1065674  c0.1962891,0.2104492,0.4628906,0.3164062,0.7294922,0.3164062c0.2451172,0,0.4912109-0.0893555,0.6835938-0.2705078  c0.4033203-0.3774414,0.4238281-1.0102539,0.0458984-1.4130859l-9.0556641-9.6635132v-6.7383423l7.6513672,8.340332  c0.3730469,0.4067383,1.0068359,0.4331055,1.4130859,0.0605469c0.4072266-0.3735352,0.4345703-1.0058594,0.0615234-1.4130859  l-9.1259766-9.9467773V25.4786987L60.5419922,25.4780273z M50.0517578,12.6230469l8.4453125,10.8549805l-16.9804688,0.0014648  L50.0517578,12.6230469z"></path><path d="M80.4628906,10.3857422C80.2744141,10.1430664,79.984375,10.0009766,79.6767578,10  c-0.2724609,0.0292969-0.5986328,0.1401367-0.7890625,0.3818359L68.2900391,23.8613281  c-0.2363281,0.3012695-0.2802734,0.7109375-0.1132812,1.0551758s0.5166016,0.5629883,0.8994141,0.5629883l9.5341797-0.0006714  v34.2456665l-9.1240234,9.9439697c-0.3730469,0.4072266-0.3457031,1.0395508,0.0615234,1.4130859  c0.1914062,0.1762695,0.4335938,0.2631836,0.6757812,0.2631836c0.2705078,0,0.5400391-0.1088867,0.7373047-0.3237305  l7.6494141-8.3375854v6.7346802l-9.1162109,9.7259521c-0.3779297,0.4033203-0.3574219,1.0361328,0.0458984,1.4135742  c0.1923828,0.1811523,0.4384766,0.2705078,0.6835938,0.2705078c0.2666016,0,0.5332031-0.105957,0.7294922-0.315918  l7.6572266-8.1694336v6.7366333l-9.0996094,9.2179565c-0.3876953,0.3930664-0.3837891,1.0263672,0.0097656,1.4140625  C69.7148438,89.9038086,69.96875,90,70.2226562,90c0.2578125,0,0.515625-0.0991211,0.7119141-0.2973633l8.6757812-8.7890625  l8.6757812,8.7871094c0.3886719,0.3935547,1.0214844,0.3964844,1.4140625,0.0087891  c0.3935547-0.3876953,0.3974609-1.0209961,0.0097656-1.4140625l-9.0996094-9.2160645v-6.7385254l7.5966797,8.1074219  c0.1962891,0.2104492,0.4628906,0.3164062,0.7294922,0.3164062c0.2451172,0,0.4912109-0.0893555,0.6835938-0.2705078  c0.4033203-0.3774414,0.4238281-1.0102539,0.0458984-1.4130859l-9.0556641-9.6644897v-6.7373657l7.6513672,8.340332  c0.3740234,0.4067383,1.0078125,0.4331055,1.4130859,0.0605469c0.4072266-0.3735352,0.4345703-1.0058594,0.0615234-1.4130859  l-9.1259766-9.9467773V25.4786987l9.5488281-0.0006714c0.3818359,0,0.7304688-0.2177734,0.8984375-0.5605469  c0.1679688-0.3432617,0.125-0.7519531-0.109375-1.0537109L80.4628906,10.3857422z M71.1347656,23.4794922l8.5351562-10.8564453  l8.4443359,10.8549805L71.1347656,23.4794922z"></path></svg>
