<svg height='100px' width='100px'  fill="#ffffff" xmlns="http://www.w3.org/2000/svg" xmlns:xlink="http://www.w3.org/1999/xlink" version="1.1" x="0px" y="0px" viewBox="0 0 100 100" style="enable-background:new 0 0 100 100;" xml:space="preserve"><path d="M50,90c0.5527344,0,1-0.4477539,1-1V73.7565308l14.3095703-10.1300659  c0.2646484-0.1875,0.421875-0.4921875,0.421875-0.8164062V25.7314453c0-3.0575562-0.8907471-5.9047241-2.4060669-8.3222046  c-0.0213623-0.0413818-0.0281372-0.0869141-0.0558472-0.1260376c-0.0134888-0.0189819-0.0341797-0.0281372-0.0487061-0.0458984  C60.4185791,12.8909302,55.5452271,10,50,10c-5.5470581,0-10.4216919,2.8928833-13.2235107,7.2417603  c-0.0133057,0.0164795-0.0325928,0.0249023-0.0450439,0.0424194c-0.0255737,0.0361328-0.0313721,0.0783081-0.0515137,0.116394  c-1.5186157,2.4193115-2.411377,5.2697144-2.411377,8.3308716v37.0786133c0,0.3242188,0.1572266,0.6289062,0.421875,0.8164062  L49,73.7565308V89C49,89.5522461,49.4472656,90,50,90z M36.2685547,33.5824585L49,42.5949097v12.949585l-12.7314453-9.0134277  V33.5824585z M63.7314453,46.5310669L51,55.5444946v-12.949585l12.7314453-9.0124512V46.5310669z M51,71.3057861V57.9953003  l12.7314453-9.0128784v13.3105469L51,71.3057861z M63.7314453,31.1311646L51,40.144104V27.1950073l11.1310425-7.8804321  c1.0181274,1.9168701,1.6004028,4.0992432,1.6004028,6.4168701V31.1311646z M61.0570068,17.6235962L51,24.7441406V12.0506592  C55.1245117,12.3500366,58.741394,14.4744873,61.0570068,17.6235962z M49,12.0506592v12.6934814l-10.0571899-7.1204224  C41.2583618,14.4745483,44.8754272,12.3500366,49,12.0506592z M37.8688354,19.3147583L49,27.1950073V40.144104  l-12.7314453-9.0129395v-5.3997192C36.2685547,23.4138794,36.850769,21.2316284,37.8688354,19.3147583z M36.2685547,62.2929688  V48.9824219L49,57.9953003v13.3104858L36.2685547,62.2929688z"></path></svg>
