<svg height='100px' width='100px'  fill="#ffffff" xmlns="http://www.w3.org/2000/svg" xmlns:xlink="http://www.w3.org/1999/xlink" version="1.1" x="0px" y="0px" viewBox="0 0 100 100" style="enable-background:new 0 0 100 100;" xml:space="preserve"><path d="M 50 10 C 44.783549 10 40.163288 12.558798 37.300781 16.480469 L 38.53125 17.351562 C 38.94281 17.623718 38.53125 17.351562 38.943359 17.623047 L 49 24.744141 L 49 27.195312 L 38.53125 19.783203 L 38.53125 19.800781 L 36.230469 18.171875 C 34.989022 20.417779 34.269531 22.98768 34.269531 25.730469 L 34.269531 29.734375 L 38.53125 32.751953 C 38.94281 33.024109 38.53125 32.751953 38.943359 33.023438 L 49 40.144531 L 49 42.595703 L 38.53125 35.183594 L 38.53125 35.201172 L 34.269531 32.183594 L 34.269531 45.134766 L 38.53125 48.152344 C 38.94281 48.4245 38.53125 48.152343 38.943359 48.423828 L 49 55.544922 L 49 57.996094 L 38.53125 50.583984 L 38.53125 50.601562 L 34.269531 47.583984 L 34.269531 62.810547 C 34.269531 63.134765 34.426757 63.439453 34.691406 63.626953 L 49 73.755859 L 49 89 C 49 89.552246 49.447266 90 50 90 C 50.552734 90 51 89.552246 51 89 L 51 73.755859 L 65.308594 63.626953 C 65.573243 63.439453 65.730469 63.134765 65.730469 62.810547 L 65.730469 47.583984 L 61.46875 50.601562 L 61.46875 50.583984 L 51 57.996094 L 51 55.544922 L 61.056641 48.423828 C 61.46875 48.152343 61.05719 48.4245 61.46875 48.152344 L 65.730469 45.134766 L 65.730469 32.183594 L 61.46875 35.201172 L 61.46875 35.183594 L 51 42.595703 L 51 40.144531 L 61.056641 33.023438 C 61.46875 32.751953 61.05719 33.024109 61.46875 32.751953 L 65.730469 29.734375 L 65.730469 25.730469 C 65.730469 22.987634 65.011004 20.417787 63.769531 18.171875 L 61.46875 19.800781 L 61.46875 19.783203 L 51 27.195312 L 51 24.744141 L 61.056641 17.623047 C 61.46875 17.351562 61.05719 17.623718 61.46875 17.351562 L 62.699219 16.480469 C 59.836702 12.559078 55.216305 10 50 10 z "></path></svg>
