<svg xmlns="http://www.w3.org/2000/svg" height="44" width="657" version="1.1">
	<g transform="translate(0,-1008.3622)" fill="#ffffff">
		<g transform="translate(-53.217143,704.77828)">
			<path d="m53.217,309.25,15.12,0,0,37.493,7.2,0-0.72-4.8316,0-32.662,15.552,0,0-4.896-37.152,0,0,4.896"/>
			<path d="m142.05,304.36-7.416,0,0.936,5.9268,0,11.982-25.344,0,0-17.909-7.416,0,0.936,5.9268,0,36.463,7.2,0-0.71999-4.8316,0-14.495,25.344,0,0,19.326,7.2,0-0.72001-4.8316,0-37.558"/>
			<path d="m163.17,346.75,23.04,0,1.44-4.7672-18,0,0-14.559,13.608,0,1.44-4.7672-15.048,0,0-13.529,17.208,0,0-4.7672-24.624,0,0.93601,5.9268,0,36.463"/>
			<path d="m228.58,310.28,0,36.463,7.2,0-0.71999-4.8316,0-14.495,13.608,0,1.44-4.7672-15.048,0,0-13.529,17.208,0,0-4.7672-24.624,0,0.936,5.9268"/>
			<path d="m274.65,304.36-7.416,0,0.936,5.9268,0,36.463,7.2,0-0.72-4.8316,0-37.558"/>
			<path d="m295.67,310.28,0,36.463,7.2,0-0.72-4.8316,0-14.495,13.608,0,1.44-4.7672-15.048,0,0-13.529,17.208,0,0-4.7672-24.624,0,0.936,5.9268"/>
			<path d="m327.56,309.25,15.12,0,0,37.493,7.2,0-0.71999-4.8316,0-32.662,15.552,0,0-4.896-37.152,0,0,4.896"/>
			<path d="m416.4,304.36-7.416,0,0.936,5.9268,0,11.982-25.344,0,0-17.909-7.416,0,0.936,5.9268,0,36.463,7.2,0-0.72-4.8316,0-14.495,25.344,0,0,19.326,7.2,0-0.72-4.8316,0-37.558"/>
			<path d="m520.39,304.36-6.48,0-11.952,28.346-1.872,5.4114-1.512-5.4114-11.304-28.346-7.416,0,4.824,11.403-7.2,16.943-1.872,5.4114-1.512-5.4114-11.304-28.346-8.496,0,4.176,7.0864,14.328,35.303,4.032,0.83748,9.36-21.775,1.224-4.0586,1.296,3.9941,8.568,21.001,4.464,0.83748,18.648-43.227"/>
			<path d="m550.28,303.58c-12.312,0-21.6,9.921-21.6,22.354,0,11.918,7.488,21.646,20.664,21.646,12.312,0,21.744-9.9209,21.744-22.419,0-12.369-6.912-21.581-20.808-21.581m-14.544,21.968c0-9.5988,5.688-17.394,14.184-17.394s14.112,7.795,14.112,17.394c0,9.5988-5.616,17.394-14.112,17.394s-14.184-7.795-14.184-17.394"/>
			<path d="m620.93,346.75-14.76-17.523c5.688-2.3836,9.216-7.0864,9.216-12.111,0-8.6969-7.632-12.755-15.552-12.755h-13.392l0.936,5.9268v36.463h7.2l-0.71999-4.8316v-11.016c4.248,0,5.256,0,6.048-0.0644l12.672,15.912h8.352m-27.072-20.615,0-17.007,4.68,0c5.328,0,10.008,2.7057,10.008,7.9883,0,4.896-4.68,9.019-10.008,9.019h-4.68"/>
			<path d="m634.7,346.75,23.616,0,1.44-4.896-18.576,0,0-37.493-7.416,0,0.936,5.9268,0,36.463"/>
			<path d="m690.3,304.36-17.928,0,0.936,5.9268,0,36.463,14.832,0c13.392,0,21.96-9.4056,21.96-21.452,0-14.366-9.792-20.937-19.8-20.937m-1.296,4.6384c8.208,0,14.112,7.6018,14.112,16.685,0,8.9546-5.904,16.428-14.112,16.428h-9.216v-33.113h9.216"/>
		</g>
	</g>
</svg>
